<svg xmlns="http://www.w3.org/2000/svg" viewBox="0 0 30.13 30.13"><defs><style>.cls-1{fill:#516b8b;}</style></defs><g id="Camada_2" data-name="Camada 2"><g id="Camada_1-2" data-name="Camada 1"><path class="cls-1" d="M22.6,0H7.53A7.55,7.55,0,0,0,0,7.53V22.6a7.55,7.55,0,0,0,7.53,7.53H22.6a7.55,7.55,0,0,0,7.53-7.53V7.53A7.55,7.55,0,0,0,22.6,0Zm5,22.6a5,5,0,0,1-5,5H7.53a5,5,0,0,1-5-5V7.53a5,5,0,0,1,5-5H22.6a5,5,0,0,1,5,5Z"/><circle class="cls-1" cx="23.22" cy="6.9" r="1.88"/><path class="cls-1" d="M15.06,7.53a7.54,7.54,0,1,0,7.54,7.53A7.53,7.53,0,0,0,15.06,7.53Zm0,12.56a5,5,0,1,1,5-5A5,5,0,0,1,15.06,20.09Z"/></g></g></svg>