<svg xmlns="http://www.w3.org/2000/svg" viewBox="0 0 30.38 30.38"><defs><style>.cls-1{fill:#516b8b;}</style></defs><g id="Camada_2" data-name="Camada 2"><g id="Camada_1-2" data-name="Camada 1"><path class="cls-1" d="M27.85,0H2.53A2.54,2.54,0,0,0,0,2.53V27.85a2.54,2.54,0,0,0,2.53,2.53H27.85a2.54,2.54,0,0,0,2.53-2.53V2.53A2.54,2.54,0,0,0,27.85,0Zm0,27.85H2.53V2.53H27.85Z"/><rect class="cls-1" x="7.6" y="12.66" width="2.53" height="10.13"/><circle class="cls-1" cx="8.86" cy="9.49" r="1.9"/><path class="cls-1" d="M17.72,12.66a5.08,5.08,0,0,0-2.53.7v-.6H12.66v10h2.53V17.72a2.54,2.54,0,0,1,5.07,0v5.07h2.53V17.72A5.07,5.07,0,0,0,17.72,12.66Z"/></g></g></svg>